<svg width="128" height="128" viewBox="0 0 128 128" fill="none" xmlns="http://www.w3.org/2000/svg">
  <defs>
    <linearGradient id="bg" x1="0%" y1="0%" x2="100%" y2="100%">
      <stop offset="0%" stop-color="#3B82F6" />
      <stop offset="100%" stop-color="#1D4ED8" />
    </linearGradient>
  </defs>

  <rect width="128" height="128" rx="20" fill="url(#bg)" />

  <rect x="16" y="24" width="96" height="16" rx="8" fill="white" />

  <rect x="16" y="48" width="64" height="8" rx="4" fill="white" opacity="0.8" />
  <rect x="16" y="60" width="48" height="8" rx="4" fill="white" opacity="0.6" />
  <rect x="16" y="72" width="80" height="8" rx="4" fill="white" opacity="0.8" />
  <rect x="16" y="84" width="56" height="8" rx="4" fill="white" opacity="0.7" />
  <rect x="16" y="96" width="72" height="8" rx="4" fill="white" opacity="0.8" />

  <rect x="88" y="48" width="24" height="8" rx="4" fill="white" opacity="0.4" />
  <rect x="72" y="60" width="40" height="8" rx="4" fill="white" opacity="0.4" />
  <rect x="80" y="72" width="32" height="8" rx="4" fill="white" opacity="0.4" />
  <rect x="76" y="84" width="36" height="8" rx="4" fill="white" opacity="0.4" />
  <rect x="92" y="96" width="20" height="8" rx="4" fill="white" opacity="0.4" />

  <circle cx="104" cy="56" r="12" fill="#EF4444" />
  <circle cx="104" cy="56" r="8" fill="white" />
  <text x="104" y="60" text-anchor="middle" font-family="Arial, sans-serif" font-size="10" font-weight="bold"
    fill="#EF4444">3</text>

  <path d="M24 32 L28 28 L32 32" stroke="#1D4ED8" stroke-width="2" fill="none" stroke-linecap="round"
    stroke-linejoin="round" />
  <path d="M36 36 L40 32 L44 36" stroke="#1D4ED8" stroke-width="2" fill="none" stroke-linecap="round"
    stroke-linejoin="round" />
</svg>